<svg xmlns="http://www.w3.org/2000/svg" width="18.726" height="18.726" viewBox="0 0 18.726 18.726">
  <defs>
    <style>
      .cls-1 {
        opacity: 0.2;
      }

      .cls-2 {
        fill: none;
        stroke: #000;
        stroke-linecap: round;
        stroke-linejoin: round;
      }
    </style>
  </defs>
  <g id="Icon_feather-eye-off" data-name="Icon feather-eye-off" class="cls-1" transform="translate(-0.793 -0.793)">
    <path id="Path_30" data-name="Path 30" class="cls-2" d="M14.83,16.969a7.924,7.924,0,0,1-4.674,1.621c-5.508,0-8.656-6.3-8.656-6.3A14.518,14.518,0,0,1,5.482,7.621M8.5,6.189A7.176,7.176,0,0,1,10.156,6c5.508,0,8.656,6.3,8.656,6.3a14.557,14.557,0,0,1-1.7,2.51m-5.288-.842a2.361,2.361,0,1,1-3.336-3.336" transform="translate(0 -2.139)"/>
    <path id="Path_31" data-name="Path 31" class="cls-2" d="M1.5,1.5,18.812,18.812" transform="translate(0 0)"/>
  </g>
</svg>
