<svg xmlns="http://www.w3.org/2000/svg" width="49" height="50" viewBox="0 0 49 50">
  <defs>
    <style>
      .cls-1 {
        fill: #2bc5c1;
      }

      .cls-2, .cls-3 {
        fill: #fff;
      }

      .cls-2 {
        stroke: #2bc5c1;
        stroke-width: 2px;
      }

      .cls-4 {
        stroke: none;
      }

      .cls-5 {
        fill: none;
      }
    </style>
  </defs>
  <g id="Group_7" data-name="Group 7" transform="translate(-155 -528)">
    <rect id="Rectangle_16" data-name="Rectangle 16" class="cls-1" width="28" height="28" rx="5" transform="translate(176 541)"/>
    <g id="Rectangle_17" data-name="Rectangle 17" class="cls-2" transform="translate(155 546)">
      <rect class="cls-4" width="16" height="32" rx="6"/>
      <rect class="cls-5" x="1" y="1" width="14" height="30" rx="5"/>
    </g>
    <path id="Icon_awesome-arrow-up" data-name="Icon awesome-arrow-up" class="cls-3" d="M1.3,10.187.615,9.5a.737.737,0,0,1,0-1.045L6.605,2.464a.737.737,0,0,1,1.045,0l5.991,5.991a.737.737,0,0,1,0,1.045l-.684.684a.741.741,0,0,1-1.058-.012L8.363,6.46v8.861a.738.738,0,0,1-.74.74H6.636a.738.738,0,0,1-.74-.74V6.46l-3.54,3.715a.735.735,0,0,1-1.058.012Z" transform="translate(182.55 550.067)"/>
    <g id="Ellipse_3" data-name="Ellipse 3" class="cls-2" transform="translate(155 528)">
      <circle class="cls-4" cx="8" cy="8" r="8"/>
      <circle class="cls-5" cx="8" cy="8" r="7"/>
    </g>
    <g id="Rectangle_18" data-name="Rectangle 18" class="cls-2" transform="matrix(0.588, -0.809, 0.809, 0.588, 157.705, 553.831)">
      <rect class="cls-4" width="8" height="25" rx="4"/>
      <rect class="cls-5" x="1" y="1" width="6" height="23" rx="3"/>
    </g>
  </g>
</svg>
