<svg xmlns="http://www.w3.org/2000/svg" width="12.71" height="12.713" viewBox="0 0 12.71 12.713">
  <defs>
    <style>
      .cls-1 {
        fill: #2bc5c1;
      }
    </style>
  </defs>
  <path id="Icon_ionic-ios-settings" data-name="Icon ionic-ios-settings" class="cls-1" d="M16.161,10.855A1.636,1.636,0,0,1,17.21,9.329a6.483,6.483,0,0,0-.784-1.89,1.657,1.657,0,0,1-.665.142,1.632,1.632,0,0,1-1.493-2.3A6.463,6.463,0,0,0,12.381,4.5a1.634,1.634,0,0,1-3.052,0,6.483,6.483,0,0,0-1.89.784,1.632,1.632,0,0,1-1.493,2.3,1.6,1.6,0,0,1-.665-.142A6.626,6.626,0,0,0,4.5,9.332a1.635,1.635,0,0,1,0,3.052,6.483,6.483,0,0,0,.784,1.89,1.633,1.633,0,0,1,2.155,2.155,6.521,6.521,0,0,0,1.89.784,1.631,1.631,0,0,1,3.045,0,6.483,6.483,0,0,0,1.89-.784,1.634,1.634,0,0,1,2.155-2.155,6.521,6.521,0,0,0,.784-1.89A1.643,1.643,0,0,1,16.161,10.855ZM10.885,13.5a2.648,2.648,0,1,1,2.648-2.648A2.647,2.647,0,0,1,10.885,13.5Z" transform="translate(-4.5 -4.5)"/>
</svg>
