<svg xmlns="http://www.w3.org/2000/svg" width="16.269" height="14.261" viewBox="0 0 16.269 14.261">
  <defs>
    <style>
      .cls-1 {
        fill: #2bc5c1;
      }
    </style>
  </defs>
  <path id="Icon_map-food" data-name="Icon map-food" class="cls-1" d="M16.953,6.631,15.619,17.086h-4.5L9.786,6.579h5.5l1.087-3.754.616.186L15.946,6.623Zm-7.8,6.049s.168-1.356-2.167-1.356H3.262c-2.333,0-2.167,1.356-2.167,1.356H9.149ZM1.094,15.73s-.165,1.356,2.167,1.356h3.72c2.336,0,2.167-1.356,2.167-1.356ZM8.8,15.052a.78.78,0,0,0,.691-.847.779.779,0,0,0-.691-.848H1.411a.78.78,0,0,0-.691.848.781.781,0,0,0,.691.847H8.8Z" transform="translate(-0.72 -2.825)"/>
</svg>
