<svg xmlns="http://www.w3.org/2000/svg" width="14.591" height="13.763" viewBox="0 0 14.591 13.763">
  <path id="Icon_ionic-md-arrow-round-back" data-name="Icon ionic-md-arrow-round-back" d="M18.951,11.885H10.078l3.441-3.292a1.371,1.371,0,0,0,0-1.874,1.226,1.226,0,0,0-1.791,0L6,12.275a1.263,1.263,0,0,0-.373.929v.017A1.263,1.263,0,0,0,6,14.149L11.724,19.7a1.226,1.226,0,0,0,1.791,0,1.371,1.371,0,0,0,0-1.874l-3.441-3.292h8.873a1.3,1.3,0,0,0,1.269-1.327A1.284,1.284,0,0,0,18.951,11.885Z" transform="translate(-5.625 -6.33)"/>
</svg>
