<svg xmlns="http://www.w3.org/2000/svg" width="13.769" height="13.769" viewBox="0 0 13.769 13.769">
  <defs>
    <style>
      .cls-1 {
        fill: #2bc5c1;
      }
    </style>
  </defs>
  <path id="Icon_ionic-ios-refresh-circle" data-name="Icon ionic-ios-refresh-circle" class="cls-1" d="M10.26,3.375a6.885,6.885,0,1,0,6.885,6.885A6.883,6.883,0,0,0,10.26,3.375Zm0,11.124a4.24,4.24,0,0,1,0-8.48V4.795a.265.265,0,0,1,.41-.222l2.413,1.741a.266.266,0,0,1-.013.45L10.657,8.3a.265.265,0,0,1-.4-.228V6.682a3.578,3.578,0,1,0,3.565,3.879.326.326,0,0,1,.328-.3h0a.327.327,0,0,1,.328.354A4.229,4.229,0,0,1,10.26,14.5Z" transform="translate(-3.375 -3.375)"/>
</svg>
