<svg xmlns="http://www.w3.org/2000/svg" width="12.71" height="16.947" viewBox="0 0 12.71 16.947">
  <defs>
    <style>
      .cls-1 {
        fill: #2bc5c1;
      }
    </style>
  </defs>
  <path id="Icon_awesome-clipboard-list" data-name="Icon awesome-clipboard-list" class="cls-1" d="M11.121,2.118H8.473a2.118,2.118,0,0,0-4.237,0H1.589A1.589,1.589,0,0,0,0,3.707V15.358a1.589,1.589,0,0,0,1.589,1.589h9.532a1.589,1.589,0,0,0,1.589-1.589V3.707A1.589,1.589,0,0,0,11.121,2.118ZM3.177,14.034a.794.794,0,1,1,.794-.794A.792.792,0,0,1,3.177,14.034Zm0-3.177a.794.794,0,1,1,.794-.794A.792.792,0,0,1,3.177,10.856Zm0-3.177a.794.794,0,1,1,.794-.794A.792.792,0,0,1,3.177,7.679ZM6.355,1.324a.794.794,0,1,1-.794.794A.792.792,0,0,1,6.355,1.324ZM10.592,13.5a.266.266,0,0,1-.265.265H5.561A.266.266,0,0,1,5.3,13.5v-.53a.266.266,0,0,1,.265-.265h4.766a.266.266,0,0,1,.265.265Zm0-3.177a.266.266,0,0,1-.265.265H5.561a.266.266,0,0,1-.265-.265V9.8a.266.266,0,0,1,.265-.265h4.766a.266.266,0,0,1,.265.265Zm0-3.177a.266.266,0,0,1-.265.265H5.561A.266.266,0,0,1,5.3,7.149V6.62a.266.266,0,0,1,.265-.265h4.766a.266.266,0,0,1,.265.265Z"/>
</svg>
