<svg xmlns="http://www.w3.org/2000/svg" width="19.04" height="15.232" viewBox="0 0 19.04 15.232">
  <defs>
    <style>
      .cls-1 {
        opacity: 0.2;
      }
    </style>
  </defs>
  <path id="Icon_awesome-eye-slash" data-name="Icon awesome-eye-slash" class="cls-1" d="M9.52,11.9A4.268,4.268,0,0,1,5.269,7.94L2.148,5.528A9.915,9.915,0,0,0,1.056,7.182a.962.962,0,0,0,0,.868A9.542,9.542,0,0,0,9.52,13.328a9.241,9.241,0,0,0,2.317-.311l-1.544-1.194a4.288,4.288,0,0,1-.773.078Zm9.336,1.728-3.289-2.542A9.855,9.855,0,0,0,17.984,8.05a.962.962,0,0,0,0-.868A9.542,9.542,0,0,0,9.52,1.9,9.167,9.167,0,0,0,5.137,3.025L1.352.1A.476.476,0,0,0,.684.184L.1.935A.476.476,0,0,0,.184,1.6l17.5,13.528a.476.476,0,0,0,.668-.084l.584-.752a.476.476,0,0,0-.084-.668ZM13.39,9.4l-1.169-.9A2.819,2.819,0,0,0,8.767,4.873a1.418,1.418,0,0,1,.277.839,1.388,1.388,0,0,1-.046.3L6.808,4.317A4.234,4.234,0,0,1,9.52,3.332,4.282,4.282,0,0,1,13.8,7.616,4.182,4.182,0,0,1,13.39,9.4Z" transform="translate(0 0)"/>
</svg>
