<svg xmlns="http://www.w3.org/2000/svg" width="11.744" height="11.744" viewBox="0 0 11.744 11.744">
  <defs>
    <style>
      .cls-1 {
        fill: #fff;
      }
    </style>
  </defs>
  <path id="Icon_awesome-plus" data-name="Icon awesome-plus" class="cls-1" d="M10.905,6.864H7.131V3.089a.839.839,0,0,0-.839-.839H5.453a.839.839,0,0,0-.839.839V6.864H.839A.839.839,0,0,0,0,7.7v.839a.839.839,0,0,0,.839.839H4.614v3.775a.839.839,0,0,0,.839.839h.839a.839.839,0,0,0,.839-.839V9.381h3.775a.839.839,0,0,0,.839-.839V7.7A.839.839,0,0,0,10.905,6.864Z" transform="translate(0 -2.25)"/>
</svg>
