<svg xmlns="http://www.w3.org/2000/svg" width="18.54" height="12.36" viewBox="0 0 18.54 12.36">
  <defs>
    <style>
      .cls-1 {
        fill: #2bc5c1;
      }
    </style>
  </defs>
  <path id="Icon_awesome-eye" data-name="Icon awesome-eye" class="cls-1" d="M18.428,10.21A10.324,10.324,0,0,0,9.27,4.5,10.325,10.325,0,0,0,.112,10.21a1.041,1.041,0,0,0,0,.94A10.324,10.324,0,0,0,9.27,16.86a10.325,10.325,0,0,0,9.158-5.71A1.041,1.041,0,0,0,18.428,10.21Zm-9.158,5.1A4.635,4.635,0,1,1,13.9,10.68,4.635,4.635,0,0,1,9.27,15.315Zm0-7.725a3.068,3.068,0,0,0-.815.122A1.54,1.54,0,0,1,6.3,9.865,3.083,3.083,0,1,0,9.27,7.59Z" transform="translate(0 -4.5)"/>
</svg>
